# xmcd
#
# Track frame offsets: 
#        150
#        17443
#        34637
#        55092
#        72759
#        96442
#        118107
#        135361
#        153956
#        173440
#        199090
#
# Disc length: 2875 seconds
#
# Revision: 0
# Processed by: cddbd v1.5.1PL0 Copyright (c) Steve Scherf et al.
# Submitted via: ExactAudioCopy v0.95a4
#
DISCID=820b390b
DTITLE=Vitor Hugo - Tchê
DYEAR=1999
DGENRE=Nativista
TTITLE0=Vira, Virou
TTITLE1=Horizontes
TTITLE2=Nuvem Passageira
TTITLE3=Semeadura
TTITLE4=Chamamecero
TTITLE5=De Cantar Em Versos
TTITLE6=Vento Negro
TTITLE7=Pra Onde Ir
TTITLE8=Desgarrados
TTITLE9=Águas de Infância
TTITLE10=Presságios
EXTD=
EXTT0=
EXTT1=
EXTT2=
EXTT3=
EXTT4=
EXTT5=
EXTT6=
EXTT7=
EXTT8=
EXTT9=
EXTT10=
PLAYORDER=
